<svg width="18" height="20" fill="none" xmlns="http://www.w3.org/2000/svg"><path d="M15.95 11.89l-.38-.304a.872.872 0 01-.326-.68V7.388A6.534 6.534 0 009.978.98a1.307 1.307 0 00-2.53 0 6.533 6.533 0 00-5.27 6.407v3.52a.871.871 0 01-.327.68l-.379.304A3.92 3.92 0 000 14.94v.723a1.742 1.742 0 001.742 1.742H5.34a3.484 3.484 0 006.738 0h3.602a1.742 1.742 0 001.742-1.742v-.715a3.92 3.92 0 00-1.472-3.057zm-7.24 6.387a1.742 1.742 0 01-1.498-.871h3a1.743 1.743 0 01-1.502.871zm6.969-2.613H1.742v-.715a2.177 2.177 0 01.819-1.698l.379-.305a2.614 2.614 0 00.98-2.038v-3.52a4.791 4.791 0 119.582 0v3.52a2.614 2.614 0 00.98 2.042l.379.305a2.177 2.177 0 01.819 1.694v.715z" fill="#000"/></svg>