<svg width="17" height="21" fill="none" xmlns="http://www.w3.org/2000/svg"><path d="M16.1 8.077c0 2.909-1.744 5.933-3.723 8.309a23.312 23.312 0 01-2.771 2.816c-.4.338-.738.59-.988.754a3.91 3.91 0 01-.118.074 3.91 3.91 0 01-.118-.074c-.25-.163-.588-.416-.988-.754a23.31 23.31 0 01-2.771-2.817C2.643 14.01.9 10.986.9 8.078.9 4.156 4.259.9 8.5.9s7.6 3.256 7.6 7.177zM8.31 20.13l.015-.006a.085.085 0 01-.015.006zm.365-.006l.015.006-.015-.006z" stroke="#000" stroke-width="1.8"/><circle cx="8.5" cy="8.5" r="2.6" stroke="#000" stroke-width="1.8"/></svg>