<svg width="18" height="20" viewBox="0 0 18 20" fill="none" xmlns="http://www.w3.org/2000/svg">
<path d="M15.9498 11.8909L15.5709 11.5861C15.469 11.5045 15.3868 11.4011 15.3302 11.2835C15.2737 11.1659 15.2443 11.0371 15.2442 10.9066V7.38736C15.2437 5.87499 14.7185 4.40964 13.7583 3.24125C12.798 2.07287 11.4621 1.27383 9.97844 0.980429C9.9061 0.699848 9.74255 0.451271 9.5135 0.273792C9.28446 0.096313 9.00292 0 8.71317 0C8.42341 0 8.14187 0.096313 7.91283 0.273792C7.68379 0.451271 7.52024 0.699848 7.4479 0.980429C5.96346 1.27294 4.62655 2.0716 3.66541 3.24007C2.70426 4.40854 2.17845 5.87438 2.17775 7.38736V10.9066C2.17767 11.0371 2.14827 11.1659 2.09173 11.2835C2.03519 11.4011 1.95295 11.5045 1.85109 11.5861L1.47216 11.8909C1.01452 12.2568 0.644714 12.7206 0.389947 13.2482C0.13518 13.7759 0.00193104 14.3539 0 14.9398V15.6628C0 16.1249 0.183552 16.568 0.510278 16.8947C0.837003 17.2214 1.28014 17.405 1.7422 17.405H5.33984C5.53618 18.1488 5.97313 18.8066 6.58254 19.276C7.19196 19.7454 7.93957 20 8.70881 20C9.47805 20 10.2257 19.7454 10.8351 19.276C11.4445 18.8066 11.8814 18.1488 12.0778 17.405H15.6798C16.1418 17.405 16.585 17.2214 16.9117 16.8947C17.2384 16.568 17.422 16.1249 17.422 15.6628V14.9485C17.4213 14.3611 17.2887 13.7814 17.0339 13.2522C16.7791 12.7229 16.4086 12.2577 15.9498 11.8909ZM8.71099 18.2761C8.40695 18.2743 8.10869 18.1929 7.84584 18.0401C7.58299 17.8873 7.36471 17.6683 7.2127 17.405H10.2136C10.0612 17.6689 9.84228 17.8883 9.57861 18.0412C9.31493 18.194 9.01577 18.275 8.71099 18.2761ZM15.6798 15.6628H1.7422V14.9485C1.74266 14.6221 1.81649 14.3 1.95823 14.006C2.09996 13.7119 2.30597 13.4535 2.56103 13.2499L2.93996 12.945C3.24555 12.7003 3.49227 12.3901 3.66189 12.0373C3.83151 11.6845 3.9197 11.2981 3.91995 10.9066V7.38736C3.91995 6.1167 4.42471 4.89808 5.32321 3.99958C6.2217 3.10109 7.44032 2.59632 8.71099 2.59632C9.98165 2.59632 11.2003 3.10109 12.0988 3.99958C12.9973 4.89808 13.502 6.1167 13.502 7.38736V10.9066C13.5016 11.2988 13.5895 11.6861 13.7591 12.0397C13.9288 12.3933 14.1759 12.7042 14.482 12.9493L14.8609 13.2542C15.1154 13.4574 15.3211 13.7151 15.4628 14.0083C15.6045 14.3016 15.6787 14.6228 15.6798 14.9485V15.6628Z" fill="black"/>
</svg>
