<svg width="20" height="20" viewBox="0 0 20 20" fill="none" xmlns="http://www.w3.org/2000/svg">
<path fill-rule="evenodd" clip-rule="evenodd" d="M8.33648 14.6881C11.8444 14.6881 14.6881 11.8444 14.6881 8.33648C14.6881 4.82859 11.8444 1.98488 8.33648 1.98488C4.82859 1.98488 1.98488 4.82859 1.98488 8.33648C1.98488 11.8444 4.82859 14.6881 8.33648 14.6881ZM8.33648 16.673C12.9406 16.673 16.673 12.9406 16.673 8.33648C16.673 3.73237 12.9406 0 8.33648 0C3.73237 0 0 3.73237 0 8.33648C0 12.9406 3.73237 16.673 8.33648 16.673Z" fill="black"/>
<path fill-rule="evenodd" clip-rule="evenodd" d="M18.2609 20L13.0435 14.7826L14.447 13.3791L19.6644 18.5965L18.2609 20Z" fill="black"/>
</svg>
