<svg width="17" height="21" viewBox="0 0 17 21" fill="none" xmlns="http://www.w3.org/2000/svg">
<path d="M16.1 8.07692C16.1 10.9855 14.3563 14.0101 12.3773 16.3855C11.4022 17.5559 10.4034 18.5283 9.60598 19.2019C9.20609 19.5396 8.86807 19.7927 8.61795 19.9557C8.5742 19.9842 8.53491 20.0088 8.5 20.0298C8.46509 20.0088 8.4258 19.9842 8.38205 19.9557C8.13193 19.7927 7.79391 19.5396 7.39402 19.2019C6.59657 18.5283 5.59782 17.5559 4.62272 16.3855C2.64369 14.0101 0.9 10.9855 0.9 8.07692C0.9 4.15596 4.25879 0.9 8.5 0.9C12.7412 0.9 16.1 4.15596 16.1 8.07692ZM8.31004 20.1296C8.31022 20.1293 8.31528 20.1271 8.32471 20.1241C8.31457 20.1284 8.30986 20.1299 8.31004 20.1296ZM8.67529 20.1241C8.68468 20.1271 8.68975 20.1292 8.68996 20.1296C8.69018 20.1299 8.68546 20.1284 8.67529 20.1241Z" stroke="black" stroke-width="1.8"/>
<circle cx="8.5" cy="8.5" r="2.6" stroke="black" stroke-width="1.8"/>
</svg>
