<svg width="18" height="20" viewBox="0 0 18 20" fill="none" xmlns="http://www.w3.org/2000/svg">
<path d="M8.69561 8.69565C7.83569 8.69565 6.99508 8.44066 6.28008 7.96291C5.56509 7.48517 5.00782 6.80613 4.67874 6.01167C4.34966 5.21721 4.26356 4.34301 4.43132 3.49961C4.59908 2.65621 5.01317 1.88151 5.62123 1.27345C6.22928 0.665396 7.00399 0.251306 7.84739 0.0835442C8.69078 -0.0842176 9.56499 0.00188384 10.3594 0.330961C11.1539 0.660037 11.8329 1.21731 12.3107 1.93231C12.7884 2.6473 13.0434 3.48791 13.0434 4.34783C13.0434 5.50094 12.5854 6.60683 11.77 7.42221C10.9546 8.23758 9.84872 8.69565 8.69561 8.69565ZM8.69561 1.73913C8.17966 1.73913 7.67529 1.89213 7.24629 2.17878C6.81729 2.46542 6.48293 2.87285 6.28549 3.34952C6.08804 3.8262 6.03638 4.35072 6.13704 4.85676C6.23769 5.3628 6.48615 5.82762 6.85098 6.19245C7.21581 6.55729 7.68064 6.80574 8.18668 6.9064C8.69271 7.00706 9.21723 6.9554 9.69391 6.75795C10.1706 6.5605 10.578 6.22614 10.8647 5.79714C11.1513 5.36814 11.3043 4.86378 11.3043 4.34783C11.3043 3.65596 11.0295 2.99243 10.5402 2.5032C10.051 2.01398 9.38748 1.73913 8.69561 1.73913Z" fill="black"/>
<path d="M16.5217 20H0.869565C0.638942 20 0.417765 19.9084 0.25469 19.7453C0.0916146 19.5823 0 19.3611 0 19.1305V16.5218C0 14.6768 0.732917 12.9074 2.03752 11.6028C3.34212 10.2982 5.11154 9.56525 6.95652 9.56525H10.4348C12.2798 9.56525 14.0492 10.2982 15.3538 11.6028C16.6584 12.9074 17.3913 14.6768 17.3913 16.5218V19.1305C17.3913 19.3611 17.2997 19.5823 17.1366 19.7453C16.9735 19.9084 16.7524 20 16.5217 20ZM1.73913 18.2609H15.6522V16.5218C15.6522 15.138 15.1025 13.811 14.124 12.8325C13.1456 11.8541 11.8185 11.3044 10.4348 11.3044H6.95652C5.57278 11.3044 4.24572 11.8541 3.26727 12.8325C2.28882 13.811 1.73913 15.138 1.73913 16.5218V18.2609Z" fill="black"/>
</svg>
