<svg xmlns="http://www.w3.org/2000/svg" xmlns:xlink="http://www.w3.org/1999/xlink"><symbol id="icon-arrow-down"><path d="M1 1l3 3 3-3" stroke="#000"/></symbol><symbol id="icon-arrow-right"><path d="M1.5 1l9 9-9 9" stroke="#000" stroke-width="2"/></symbol><symbol id="icon-burger"><path fill-rule="evenodd" clip-rule="evenodd" d="M23 2H0V0h23v2zm0 7H0V7h23v2zm0 7H0v-2h23v2z" fill="#000"/></symbol><symbol id="icon-geo"><path d="M16.1 8.077c0 2.909-1.744 5.933-3.723 8.309a23.312 23.312 0 01-2.771 2.816c-.4.338-.738.59-.988.754a3.91 3.91 0 01-.118.074 3.91 3.91 0 01-.118-.074c-.25-.163-.588-.416-.988-.754a23.31 23.31 0 01-2.771-2.817C2.643 14.01.9 10.986.9 8.078.9 4.156 4.259.9 8.5.9s7.6 3.256 7.6 7.177zM8.31 20.13l.015-.006a.085.085 0 01-.015.006zm.365-.006l.015.006-.015-.006z" stroke="#000" stroke-width="1.8"/><circle cx="8.5" cy="8.5" r="2.6" stroke="#000" stroke-width="1.8"/></symbol><symbol id="icon-notification"><path d="M15.95 11.89l-.38-.304a.872.872 0 01-.326-.68V7.388A6.534 6.534 0 009.978.98a1.307 1.307 0 00-2.53 0 6.533 6.533 0 00-5.27 6.407v3.52a.871.871 0 01-.327.68l-.379.304A3.92 3.92 0 000 14.94v.723a1.742 1.742 0 001.742 1.742H5.34a3.484 3.484 0 006.738 0h3.602a1.742 1.742 0 001.742-1.742v-.715a3.92 3.92 0 00-1.472-3.057zm-7.24 6.387a1.742 1.742 0 01-1.498-.871h3a1.743 1.743 0 01-1.502.871zm6.969-2.613H1.742v-.715a2.177 2.177 0 01.819-1.698l.379-.305a2.614 2.614 0 00.98-2.038v-3.52a4.791 4.791 0 119.582 0v3.52a2.614 2.614 0 00.98 2.042l.379.305a2.177 2.177 0 01.819 1.694v.715z" fill="#000"/></symbol><symbol id="icon-ok"><circle cx="8.5" cy="8.5" r="8" stroke="#fff"/><path d="M5.5 8l2.577 2.5 4.5-4.5" stroke="#fff"/></symbol><symbol id="icon-question"><path d="M7 11.5h-.19l-.142.126L3 14.886V11.5H2A1.5 1.5 0 01.5 10V2A1.5 1.5 0 012 .5h13A1.5 1.5 0 0116.5 2v8a1.5 1.5 0 01-1.5 1.5H7zm-3-7h7m-7 3h5"/></symbol><symbol id="icon-search"><path fill-rule="evenodd" clip-rule="evenodd" d="M8.336 14.688a6.352 6.352 0 100-12.703 6.352 6.352 0 000 12.703zm0 1.985A8.337 8.337 0 108.336 0a8.337 8.337 0 000 16.673z" fill="#000"/><path fill-rule="evenodd" clip-rule="evenodd" d="M18.26 20l-5.217-5.217 1.404-1.404 5.217 5.217L18.261 20z" fill="#000"/></symbol><symbol id="icon-user"><path d="M8.696 8.696a4.348 4.348 0 110-8.696 4.348 4.348 0 010 8.696zm0-6.957a2.609 2.609 0 100 5.218 2.609 2.609 0 000-5.218zM16.522 20H.87a.87.87 0 01-.87-.87v-2.608a6.956 6.956 0 016.957-6.957h3.478a6.957 6.957 0 016.956 6.957v2.609a.87.87 0 01-.87.869zM1.739 18.26h13.913v-1.738a5.217 5.217 0 00-5.217-5.218H6.957a5.218 5.218 0 00-5.218 5.218v1.739z" fill="#000"/></symbol></svg>
