<svg width="207" height="47" fill="none" xmlns="http://www.w3.org/2000/svg"><path d="M.216 47H47.64V0H.216v47zM30.611 3.59c8.382 2.723 14.44 10.598 14.462 19.902.023 9.152-5.912 17.009-14.462 19.91V3.59zM23.92 2.525c1.515 0 3.127.2 4.471.466C28.39 13.639 18 22.4 7.275 22.4l-4.485-.006c.736-10.916 9.85-19.87 21.13-19.87zM7.28 24.618c10.722 0 21.11 8.754 21.11 19.392-1.343.271-3.035.473-4.47.473-11.284-.015-20.705-8.997-21.132-19.865h4.491zm56.233 3.012v-2.962h9.867v-3.777h-9.87v-5.498h10.5v-3.768H59.471V27.46c0 4.003 1.72 6.741 5.758 7.304.081.02.16.034.234.035h.074c.413.046.836.077 1.279.077h7.473v-3.763h-7.44c-1.284 0-3.337-.628-3.337-3.481zm13.647-5.02v12.27h4.04V11.62h-4.04v10.992zm15.627-5.082c-5.107 0-8.93 3.487-8.93 8.917v.134c0 5.296 3.688 8.715 9.032 8.715 2.57 0 4.972-.703 7.171-3.016l-2.435-2.347c-1.286 1.274-2.537 1.944-4.6 1.944-3.011 0-5.007-1.743-5.142-4.425h13.259c.068-.67.068-1.407.068-1.407 0-4.727-3.349-8.515-8.423-8.515zm-4.803 7.106c.17-2.044 2.267-3.687 4.803-3.687 2.368 0 4.296 1.676 4.296 3.687h-9.099zm24.58-3.519c1.827 0 3.18.67 4.33 1.843l2.503-2.58c-1.962-2.079-4.296-2.917-6.833-2.917-5.141 0-9.267 3.788-9.267 8.95 0 5.163 4.126 8.95 9.267 8.95 2.537 0 4.871-.837 6.833-2.916l-2.503-2.581c-1.15 1.173-2.503 1.844-4.33 1.844-2.976 0-5.243-2.246-5.243-5.297 0-3.05 2.267-5.296 5.243-5.296zm13.39 6.521h-.005v-5.939h3.675V18.06h-3.67v-6.44h-4.041v16.253h.011c.116 3.778 1.849 6.353 5.747 6.896.081.02.161.034.234.036h.074c.413.045.836.076 1.278.076h.428l.015-3.763h-.409c-1.284 0-3.337-.627-3.337-3.481zm11.078-7.075v-2.5h-4.008V34.88h4.008v-8.844c0-2.77 1.785-4.506 4.579-4.506.64 0 1.213.067 1.684.167v-3.871a8.73 8.73 0 00-1.211-.1c-2.426 0-4.244 1.102-5.052 2.835zm16.144-3.001c-5.153 0-9.262 3.87-9.262 8.91 0 5.038 4.109 8.91 9.262 8.91 5.117 0 9.26-3.872 9.26-8.91 0-5.04-4.143-8.91-9.26-8.91zm0 14.184c-2.998 0-5.253-2.304-5.253-5.274s2.255-5.273 5.253-5.273c2.964 0 5.252 2.302 5.252 5.273 0 2.97-2.288 5.274-5.252 5.274zm11.745-9.534v12.67h4.043V11.62h-4.043v10.59zm18.617 5.627c0 2.67-1.582 3.806-3.705 3.806-2.122 0-3.704-1.136-3.704-3.77V18.06h-4.075v10.146c0 4.806 3.536 7.109 7.746 7.109 4.243 0 7.811-2.336 7.811-7.21V18.06h-4.073v9.777zm19.364 1.664l-2.549-3.532 3.156-4.26 2.703-3.649h-4.411l-3.672 5.04-3.704-5.04h-4.378l2.511 3.403 3.349 4.54-3.51 4.844-2.922 4.033h4.344l4.31-5.94 4.31 5.94h4.345l-3.882-5.379z" fill="#2A2B49"/></svg>